<?xml version="1.0" encoding="utf-8"?>
<!-- Generator: Adobe Illustrator 24.1.1, SVG Export Plug-In . SVG Version: 6.00 Build 0)  -->
<svg version="1.1" id="Layer_1" xmlns="http://www.w3.org/2000/svg" xmlns:xlink="http://www.w3.org/1999/xlink" x="0px" y="0px"
	 viewBox="0 0 512 512" style="enable-background:new 0 0 512 512;" xml:space="preserve">
<style type="text/css">
	.st0{fill:#333333;}
</style>
<g id="XMLID_6_">
	<path id="XMLID_11_" class="st0" d="M377.2,197.8L275.1,44.7c-4.8-6.4-12-9.6-19.1-9.6s-15.2,3.2-19.1,10.4L134.8,197.8H23.1
		C10.4,197.8,0,208.1,0,220.9c0,2.4,0,4,0.8,6.4l59,215.3c5.6,19.9,23.1,34.3,44.7,34.3h303.1c21.5,0,39.1-14.4,44.7-34.3l59-215.3
		l0.8-6.4c0-12.8-10.4-23.1-23.1-23.1H377.2z M185.8,197.8L256,94.9L326.2,197H185.8V197.8z M256,383.6c-25.5,0-46.3-20.7-46.3-46.3
		c0-25.5,20.7-46.3,46.3-46.3s46.3,20.7,46.3,46.3C302.3,362.9,281.5,383.6,256,383.6z"/>
</g>
</svg>
