<svg id="Component_5_1" data-name="Component 5 – 1" xmlns="http://www.w3.org/2000/svg" width="19.7" height="16.996" viewBox="0 0 19.7 16.996">
  <path id="Icon_metro-shopping-basket" data-name="Icon metro-shopping-basket" d="M18.371,11.417l-3.922-5.87a.871.871,0,0,0-.743-.381.882.882,0,0,0-.743.381l-3.922,5.87H4.752a.9.9,0,0,0-.9.9,1.051,1.051,0,0,0,.031.242l2.27,8.3a1.8,1.8,0,0,0,1.728,1.307H19.527a1.785,1.785,0,0,0,1.724-1.312l2.27-8.3a.8.8,0,0,0,.036-.237.9.9,0,0,0-.9-.9H18.371Zm-7.352,0,2.686-3.94,2.686,3.94H11.02Zm2.686,7.164A1.791,1.791,0,1,1,15.5,16.79,1.79,1.79,0,0,1,13.706,18.581Z" transform="translate(-3.856 -5.167)" fill="#c59358"/>
  <path id="Icon_metro-shopping-basket-2" data-name="Icon metro-shopping-basket" d="M18.371,11.417l-3.922-5.87a.871.871,0,0,0-.743-.381.882.882,0,0,0-.743.381l-3.922,5.87H4.752a.9.9,0,0,0-.9.9,1.051,1.051,0,0,0,.031.242l2.27,8.3a1.8,1.8,0,0,0,1.728,1.307H19.527a1.785,1.785,0,0,0,1.724-1.312l2.27-8.3a.8.8,0,0,0,.036-.237.9.9,0,0,0-.9-.9H18.371Zm-7.352,0,2.686-3.94,2.686,3.94H11.02Zm2.686,7.164A1.791,1.791,0,1,1,15.5,16.79,1.79,1.79,0,0,1,13.706,18.581Z" transform="translate(-3.856 -5.167)" fill="#c59358"/>
</svg>
